<?xml version="1.0" standalone="no"?>
<!DOCTYPE svg PUBLIC "-//W3C//DTD SVG 1.0//EN" "http://www.w3.org/TR/2001/REC-SVG-20010904/DTD/svg10.dtd">
<svg xmlns="http://www.w3.org/2000/svg" id="body_1" width="16" height="16">

    <g transform="matrix(0.5 0 0 0.5 0 0)">
        <g transform="matrix(0.5 0 0 0.5 0 0)">
            <g transform="matrix(0.072794 0 0 0.072794 -0.000407 0.634153)">
                <path d="M503.127 119.752C 495.427 98.637 230.207 -4.4680023 226.82703 6.8519974C 178.12703 19.546997 158.30704 75.67799 124.80703 111.231995L124.80703 111.231995L50.414032 106.97199C 17.644032 149.11398 0.44703293 192.172 12.156033 236.922C 54.15803 293.828 102.91603 342.252 133.30603 413.722C 135.70802 447.414 279.12604 417.25497 309.86603 410.586C 267.87402 440.646 231.30603 487.236 247.02002 621.426C 261.36603 684.44 271.18002 754.796 398.42 826.06604C 415.17 835.44806 449.82703 846.2731 471.258 854.16406C 491.753 863.5641 515.718 867.42804 583.328 846.7521C 622.452 829.8891 664.693 819.7301 702.978 802.9081L702.978 802.9081L656.96106 805.06805C 593.59106 806.44806 544.6611 811.1741 529.58105 793.4681L529.58105 793.4681L471.26105 692.7881L505.26105 626.7481C 552.317 631.5741 567.93604 669.73413 609.4111 684.2661L609.4111 684.2661L658.2961 648.0511C 800.2961 731.86707 856.77606 594.9311 872.96606 488.28107C 871.23804 444.88907 779.01404 501.88107 784.60406 481.60107C 786.7701 434.95706 748.75006 373.9311 724.1841 326.38107L724.1841 326.38107L752.6141 216.38107C 765.5141 204.88107 692.89404 82.52107 633.59406 67.26108C 581.5641 53.861076 503.13403 119.75308 503.13403 119.75308L503.13403 119.75308L503.127 119.752z"
                      stroke="none" fill="#FDEE21" fill-rule="nonzero"/>
                <g>
                    <path d="M736.387 353.55C 736.887 365.366 736.83905 379.737 737.981 388.69998C 737.784 395.538 732.658 395.8 728.417 397.21997L728.417 397.21997L756.047 407.33997C 761.533 416.56998 765.941 425.80298 770.394 435.03397C 775.55896 457.74197 771.694 458.39096 768.269 460.06396C 758.242 460.16595 748.24396 460.18396 738.911 458.19995C 743.091 460.40695 744.011 462.01495 744.45404 464.84195C 745.27 470.05396 741.91406 477.17194 736.387 484.02994C 744.559 488.56393 759.45703 492.99994 770.52704 497.20993L770.52704 497.20993L783.14703 469.11694C 777.432 427.84695 760.10205 389.81696 736.387 353.54694L736.387 353.54694L736.387 353.55zM787.95703 491.97998C 803.281 498.36697 824.452 496.495 853.80505 481.36697C 858.17004 478.26297 862.23505 480.11697 854.42505 485.22498C 815.92505 519.772 797.49805 502.49 787.95807 491.97998z"
                          stroke="none" fill="#C8C037" fill-rule="nonzero"/>
                    <path d="M856.747 476.84C 861.299 485.556 858.541 492.645 857.013 500.007C 852.26 537.457 840.59 567.063 817.693 598.001C 743.21497 717.74097 668.023 642.818 608.073 594.055L608.073 594.055L583.275 656.192C 581.95905 661.638 576.47504 665.88 615.21204 682.93L615.21204 682.93L654.66406 655.063C 805.1241 769.54297 911.744 494.823 856.7441 476.843L856.7441 476.843L856.747 476.84zM626.21704 583.83997C 616.067 584.56396 585.85706 594.837 584.51105 600.78595L584.51105 600.78595L598.413 580.074zM606.47705 456.86996C 608.33704 456.86996 617.2651 459.26697 616.30707 458.73398C 614.9371 457.97098 616.15405 471.25397 618.96405 478.17398L618.96405 478.17398L608.07104 501.874C 628.93604 477.811 661.9291 479.412 692.55707 476.31L692.55707 476.31L677.94507 467.256C 680.4831 458.79 677.49506 452.091 676.0851 444.888zM657.7471 385.49997C 635.36005 392.36298 613.9311 403.57498 599.54407 427.47598C 610.5201 388.081 612.7571 389.576 616.3011 387.62997C 631.65106 380.76498 644.2231 385.04398 657.7471 385.49997z"
                          stroke="none" fill="#C8C037" fill-rule="nonzero"/>
                </g>
                <path d="M538.197 847.25C 511.127 877.12 450.72702 844.99 400.56702 828.61C 273.10703 747.56 248.20702 671.26 246.46701 596.41C 239.91402 489.18997 272.837 426.88995 314.48102 412.13995C 286.92102 465.26996 274.08102 560.63995 286.851 631.55994C 297.16602 671.01495 297.381 737.55994 363.396 773.17993C 395.723 791.37994 386.966 805.5479 408.826 822.59296C 432.78098 841.27295 499.573 859.02997 538.186 847.251L538.186 847.251L538.197 847.25zM578.637 351.75C 532.807 286.75 468.33704 262.363 395.65704 259.697C 410.22504 254.94699 424.79303 252.47499 439.36105 245.45099C 442.92804 241.70299 441.76105 235.107 440.42404 228.409C 370.45404 210.13899 326.29404 187.55899 270.39404 166.629L270.39404 166.629L421.29404 202.844C 523.19403 206.71599 514.452 231.87599 578.63403 351.744zM627.70703 320.4C 593.83704 272.05 560.98706 213.37 516.40704 176.04999C 408.76703 127.46599 302.28705 91.38399 177.50705 58.549988L177.50705 58.549988L217.33405 7.333988C 349.75403 37.56099 474.13403 88.14198 585.53406 171.53398C 604.38403 219.19398 616.95404 266.917 627.70703 320.404zM695.98706 234.95999C 695.98706 234.95999 676.9991 192.35999 667.7541 176.094C 646.3081 152.32799 635.4541 108.03999 591.5411 87.172C 605.4331 90.922 614.9411 86.453995 643.3011 112.164L643.3011 112.164L687.97107 196.89801zM719.60706 308.76C 723.98706 271.85202 732.30206 212.66 722.75903 189.26001L722.75903 189.26001L642.72 82.63C 638.29 78.506996 635.1 72.909996 631.62 68.546C 669.22 78.29 708.48 104.44 761.42 207.676z"
                      stroke="none" fill="#FCF6A0" fill-rule="nonzero"/>
                <path d="M561.487 313.12C 546.507 301.32 533.157 259.62 510.457 250.95999C 489.457 249.202 481.742 242.592 454.113 248.21999C 464.133 243.19998 473.595 236.77399 484.247 233.33499C 491.462 231.63199 498.23 233.519 505.114 234.46799C 506.81403 233.66399 507.928 232.665 507.51202 231.15498C 479.7 213.96799 422.64603 213.72299 384.13202 203.91199C 428.83203 205.40799 478.28802 202.93199 511.88202 213.71199C 538.895 237.685 547.67004 282.832 561.487 313.12698L561.487 313.12698L561.487 313.12zM643.387 112.02699C 649.58704 112.59 682.961 165.37999 684.52905 174.164C 687.3041 193.366 694.14905 214.892 695.9891 234.98401C 690.49207 215.714 684.50305 196.447 677.0151 177.17801C 674.81506 171.87201 669.2911 159.876 653.9081 142.908C 646.74506 130.948 645.20807 121.548004 643.38806 112.02801zM756.487 399.55L742.2 399.55L757.98004 403.692zM659.067 385.3C 644.70905 383.53497 629.96704 383.3 615.619 386.456C 609.767 394.31598 609.364 402.31198 606.806 409.701C 624.26 390.465 631.18604 389.289 659.06604 385.301zM854.887 484.56998C 846.887 490.947 846.099 496.94998 822.474 504.14197C 805.246 508.21597 795.514 501.31198 787.404 492.02597C 799.698 495.54797 801.664 504.82596 834.62897 494.42297zM783.28705 488.56998C 777.53705 504.382 771.33704 520.37 765.08704 535.17C 750.20404 552.62396 756.54706 542.678 734.267 569.787C 741.39703 558.789 750.66705 548.221 755.52106 536.76697C 758.9211 529.225 763.1741 521.22394 765.05304 514.52295C 759.14606 511.57294 747.05304 511.33994 745.413 512.39795C 725.60504 524.08093 722.031 536.44495 710.353 548.48395C 718.817 534.9539 726.046 520.186 735.85803 508.00793C 736.976 506.42795 744.241 506.12195 748.708 505.18793C 741.768 503.9879 728.922 501.50293 727.888 501.61594C 714.966 504.72095 707.725 515.97595 698.132 523.45197C 705.12604 513.35394 711.568 502.83997 720.44904 494.15997C 721.327 493.13998 745.33203 495.24197 757.773 500.20697L757.773 500.20697L758.02 505.15698L765.083 508.007L770.39703 494.693zM626.53705 583.89996C 623.34906 582.8 595.1871 579.19995 595.1871 580.04C 584.3741 587.73596 582.7341 595.1 582.9671 601.47595C 600.9671 583.77893 600.2871 583.72894 626.5391 583.90094zM605.137 456.59998C 605.137 456.59998 625.45905 453.63696 625.06305 455.53497C 623.59106 462.58496 627.551 479.76797 627.986 477.37097L627.986 477.37097L616.562 486.69098C 640.48804 474.66098 665.675 477.07898 691.218 475.24097C 691.218 475.24097 669.711 469.30298 671.026 469.11597C 675.824 468.43597 669.749 446.68597 668.103 446.21597C 672.203 444.83096 676.19 443.78598 680.323 442.75397C 649.567 434.70596 631.783 439.44797 605.135 456.60095z"
                      stroke="none" fill="#000000" fill-rule="nonzero"/>
                <path d="M781.027 471.78L776.50995 474.043C 775.86993 460.813 761.66 461.783 749.67596 461.661L749.67596 461.661L739.84595 459.264C 742.84595 462.03 752.0759 461.814 748.34796 467.784C 745.21094 469.461 743.76794 476.654 741.972 482.69598L741.972 482.69598L736.65796 482.96198L765.08594 494.14597L771.1859 495.07797L785.7979 487.222L781.027 471.78z"
                      stroke="none" fill="#000000" fill-rule="nonzero"/>
                <path d="M646.327 462.86C 644.04004 458.335 632.533 458.978 630.052 461.905C 628.036 464.285 629.927 479.547 632.512 476.973C 636.249 473.688 641.13 472.313 646.992 472.57898C 647.732 469.75897 647.469 466.714 646.328 462.85898L646.328 462.85898L646.327 462.86zM756.677 485.59998C 757.759 484.8 760.047 477.15698 759.307 474.86697C 757.795 469.464 747.09503 470.60098 747.09503 470.60098C 744.49506 472.137 742.195 480.56097 743.15 483.34097C 743.60504 485.69397 754.95 486.44397 756.676 485.60098z"
                      stroke="none" fill="#FFFFFF" fill-rule="nonzero"/>
                <path d="M299.107 749.64L305.867 750.3C 345.937 769.975 411.917 799.147 507.437 783.47L507.437 783.47L522.425 807.05396C 480.35797 827.496 435.11298 822.79193 392.72498 824.22595L392.72498 824.22595L299.107 749.64zM241.577 594.10004L261.65 678.36804C 315.38998 711.96106 407.19 750.43805 483.71 747.333L483.71 747.333L466.81 708.533C 307.08002 674.61304 293.57 631.73303 241.59 594.093zM291.527 421.50003C 301.327 486.80203 314.43402 536.30005 371.227 577.78C 406.031 602.81006 440.577 627.734 482.597 648.304C 482.597 648.304 478.913 667.474 475.83398 667.13403C 350.784 653.234 259.23398 549.554 248.13399 502.19403C 258.874 465.864 274.284 443.17404 291.534 421.50104zM351.627 384.50003C 368.29102 456.87604 408.02402 530.18005 447.527 596.68005C 462.004 615.05005 465.793 623.155 488.107 634.34C 518.26697 643.89 539.593 641.452 561.484 640.01605C 555.486 628.91406 550.154 617.31006 543.267 606.87604C 494.24902 568.111 516.903 532.81604 529.92303 510.47003C 502.66702 503.58304 466.55304 488.94504 461.57803 469.69202C 453.57803 407.42203 457.64102 387.66702 465.64804 355.69202C 428.74805 363.47403 391.34802 371.186 351.64804 384.51202z"
                      stroke="none" fill="#000000" fill-rule="nonzero"/>
                <path d="M216.237 0.058C 204.107 7.9830003 192.419 19.314001 179.837 32.192997C 158.994 53.767998 145.13701 74.812996 123.922005 90.41699C 119.679 94.076996 107.772 99.966995 92.802 100.841995C 85.75 101.19399 81.156006 102.36199 68.198 100.73399C 56.769997 94.54599 45.913 98.56999 35.317997 111.23399C 23.697998 127.93399 8.983997 159.67099 2.8649979 179.634C -9.7350025 230.571 22.404999 272.539 53.239 304.884C 80.669 331.68 96.481995 348.426 107.744 372.991C 116.271 388.924 122.588005 410.791 129.427 426.121C 131.893 430.981 131.38 430.956 138.02701 432.421C 152.36002 435.481 172.242 435.504 189.94202 437.025C 197.60002 437.132 208.11702 436.847 218.08202 435.80798C 231.81201 433.215 247.94502 430.675 261.466 426.008C 274.67902 422.754 286.451 418.248 297.063 414.10098C 295.693 418.745 285.585 423.21597 281.79498 429.103C 245.82498 480.603 235.97198 526.411 242.23499 598.703C 245.777 630.745 253.13098 657.308 264.227 687.7C 269.304 701.60803 280.10898 723.63403 290.46298 738.265C 321.26297 781.771 390.13498 837.63904 486.02298 859.145C 502.753 861.432 521.738 860.21204 539.59296 855.45703C 586.91895 841.111 683.3729 807.182 683.3729 807.182C 683.3729 807.182 597.7529 814.265 558.5429 810.388C 549.4649 808.968 539.4629 808.488 533.1379 802.301C 532.0779 800.931 528.2239 793.169 530.71185 793.099C 534.1069 793.004 543.8539 788.959 558.91187 787.617C 526.78186 784.157 527.2419 784.199 524.8959 778.347C 521.2489 769.26196 515.6659 756.845 509.91888 745.98C 524.03687 747.18 555.29486 748.92596 565.9029 737.977C 565.9029 737.977 547.4059 740.113 531.0599 738.195C 525.55286 737.549 516.15985 734.2 513.35986 733.165C 506.02185 730.307 499.97986 729.419 498.57187 727.565C 496.02386 721.079 494.29688 718.898 491.22186 710.209C 487.05588 698.70496 486.72586 685.872 485.92188 674.126C 496.61487 687.30597 510.23987 698.401 528.2779 704.066C 528.5079 703.578 551.6779 714.138 568.5039 708.708L568.5039 708.708L572.0039 707.583C 572.0039 707.883 560.8559 708.56 556.7669 706.536C 522.5469 691.991 517.3969 679.26 511.87192 672.93604L511.87192 672.93604L497.0949 650.80304C 501.5889 641.843 504.1299 641.50305 510.0949 641.41907C 528.0949 643.41907 535.94293 644.95905 546.9019 642.31506C 554.30695 657.55505 556.3079 672.8851 573.16693 683.97705C 629.33295 700.64905 641.5369 679.02704 655.13995 659.92004C 695.55194 689.57806 761.33997 698.723 807.0399 660.43506C 865.1259 593.2231 883.5159 487.26508 878.3649 481.21506C 871.1109 468.90805 861.59296 456.21506 853.4199 457.97006C 824.2899 465.92206 813.5499 480.70007 784.68494 477.33008C 788.1229 477.13608 793.9049 477.0431 793.94794 476.7151C 796.17194 452.2751 793.76794 440.4481 792.6959 438.4181C 783.9359 419.1011 772.4359 398.7721 764.4179 383.5381C 762.3509 380.37808 756.2809 356.37308 746.1099 346.89008C 741.7479 343.16507 731.06995 333.3441 731.06995 333.3441L731.06995 333.3441L730.1649 343.7841C 730.1649 343.7841 734.3389 344.4141 735.92694 350.8811C 741.9489 375.3981 772.61395 433.3661 774.8649 436.1441C 785.7329 453.68912 775.9699 475.5441 784.23193 487.8071C 785.02594 489.3651 801.0889 487.6701 813.53894 488.4351C 834.01196 484.0321 833.1389 475.0091 850.83295 473.65308C 862.746 472.74008 863.9409 495.11307 863.78296 496.84906C 861.563 521.55304 854.048 550.27606 842.54694 576.5071C 818.63495 622.5771 791.8469 663.95306 753.87695 669.7231C 707.55096 677.81805 683.4769 657.56506 658.3649 644.6681L658.3649 644.6681L648.75793 652.8611C 616.1209 685.3611 577.3579 682.4751 561.51794 640.0111C 553.6179 623.5381 543.34595 613.4411 534.54193 599.3111L534.54193 599.3111L487.85394 632.9381C 483.96796 640.9081 479.18893 653.4781 473.38394 667.5181C 469.34793 677.27814 465.96393 694.04315 466.18393 707.9741C 460.19894 718.1691 486.91394 759.5161 503.78394 784.66614L503.78394 784.66614L518.3839 805.85913C 521.73193 814.5421 529.0639 822.2091 529.50793 823.1431C 560.8449 864.01514 489.97794 854.60315 475.34094 852.1431C 446.46494 847.54315 418.22095 835.4801 391.67096 819.35114L391.67096 819.35114L387.06595 816.5031C 355.51596 796.6371 326.48596 771.2201 301.80194 746.08014C 287.08395 729.4141 273.06995 695.2531 262.71893 671.03516C 247.20593 612.80914 224.94293 511.88516 285.25095 435.40515C 289.07394 431.03314 293.19894 423.75516 296.71094 422.30515C 314.62894 410.18515 334.08594 401.92514 355.00894 397.33914L355.00894 397.33914L352.89694 383.77615C 342.44693 386.15015 307.26395 399.01917 297.31696 404.40616C 274.69397 410.96417 255.92896 417.81216 227.09695 425.03116C 217.72496 426.17816 208.50496 426.19815 199.51695 424.97815C 178.77695 422.16016 143.42294 424.67816 141.16696 422.58215C 127.12296 402.99716 123.26696 367.90616 110.46396 349.12616L110.46396 349.12616L110.31396 348.93915L110.151955 348.76114C 102.68195 338.72113 93.97495 330.53113 85.399956 322.01114C 54.691956 291.51114 28.399956 262.01114 21.051956 230.74115C 19.201956 221.51115 14.437956 211.94115 16.969955 184.64114L16.969955 184.64114L17.016956 184.50714L17.060957 184.37314C 24.448957 158.86014 36.467957 138.07314 56.86696 117.22014C 78.094955 117.56314 99.106964 118.02014 115.47395 121.156136C 122.97395 122.41213 138.59796 124.45213 154.72595 130.46013C 195.54794 145.66713 249.48596 170.66013 249.48596 170.66013C 208.99796 148.42413 163.72595 119.54512 135.13596 113.717125C 130.88196 113.11513 128.26796 111.174126 127.00596 107.787125C 170.00595 82.523125 177.87096 52.787125 206.15295 26.101128C 219.07796 20.475128 224.11795 17.603127 235.09996 16.409126C 336.66995 32.469124 400.59998 72.924126 451.19995 99.97513C 471.72995 111.13913 490.39996 119.58113 508.21497 129.74812C 523.839 134.88812 570.985 170.48212 584.785 189.67313C 598.802 219.26813 609.035 251.23613 618.37 282.07312C 625.063 313.44812 630.934 326.1751 630.934 326.1751C 630.934 326.1751 625.24603 299.9321 626.19403 295.2171C 632.09204 297.4211 646.03406 301.7741 651.814 301.0971C 651.814 301.0971 625.99603 287.7511 622.614 275.9571C 611.758 238.11009 600.87 179.1921 597.934 176.12009C 589.66003 165.7201 555.15704 139.30408 533.994 127.09009C 525.98804 122.470085 521.661 119.60309 521.32404 117.57209C 528.08405 110.74209 536.424 101.70709 543.92206 95.96609C 551.09906 90.46309 557.6221 84.26609 567.6351 80.54309C 611.5981 60.74309 636.73505 88.16109 642.70105 82.60909C 642.70105 82.60909 633.24304 71.76909 637.44403 73.55309C 641.74603 75.883095 655.767 78.631096 657.306 80.05309C 673.32904 92.5871 715.21906 138.3971 740.46606 186.7331C 746.5301 198.57309 748.9961 206.3691 746.18207 220.6261C 743.36206 234.8961 741.18005 242.7431 738.10406 252.2731C 735.32605 258.6431 719.6061 302.2611 719.66705 308.1211C 716.50006 332.0531 729.931 362.0141 729.931 362.0141C 730.05804 353.8811 729.431 349.5481 730.168 343.7321L730.168 343.7321L731.072 333.33908C 731.072 333.33908 730.499 330.57507 730.60205 329.4791C 731.28406 322.29208 733.04706 316.24908 733.564 312.1341C 738.612 280.8791 747.38605 258.3791 757.33905 230.95209C 760.29706 224.03009 764.16705 220.18208 763.96906 214.91208C 764.1321 205.56007 755.76404 193.00809 749.71704 180.74908C 743.61707 168.34909 736.317 154.54709 726.757 139.98909C 704.937 108.61309 686.33704 84.06409 652.27704 68.68909C 642.747 64.50709 605.2471 60.419086 592.29706 62.849087C 576.59705 66.122086 563.0771 69.34909 552.29706 76.247086C 535.34705 87.10109 522.02704 103.90709 506.39706 113.80708C 471.83707 96.525085 455.15707 83.59108 452.04706 81.80708C 431.50705 70.80109 406.84705 58.029083 380.31705 45.90708C 367.59705 34.045082 288.61707 5.67408 216.27705 0.015083313L216.27705 0.015083313L216.237 0.058zM658.317 644.65796C 637.017 628.00793 619.08704 610.858 607.267 593.21796C 603.40906 613.97595 589.403 628.75995 578.57904 643.30096C 576.424 646.701 574.87103 651.36096 585.481 666.18097C 588.341 670.12897 598.688 670.80396 605.67303 670.441C 598.567 665.069 587.755 659.388 586.01306 654.464C 598.51306 662.964 610.08905 665.42096 620.5511 664.05C 622.9511 663.77997 625.9111 661.246 628.2061 657.344C 632.8701 647.324 636.5211 644.911 640.2111 642.214L640.2111 642.214L648.71313 652.864z"
                      stroke="#000000" stroke-width="0.114" fill="#000000" fill-rule="nonzero"/>
            </g>
        </g>
    </g>
</svg>