<?xml version="1.0" standalone="no"?>
<!DOCTYPE svg PUBLIC "-//W3C//DTD SVG 1.0//EN" "http://www.w3.org/TR/2001/REC-SVG-20010904/DTD/svg10.dtd">
<svg xmlns="http://www.w3.org/2000/svg" id="body_1" width="16" height="16">

    <g transform="matrix(0.24045327 0 0 0.24045327 1.683173 0.75273913)">
        <path d="M42.915 42.1L42.612 41.455997L35.992 28.905998C 35.768 28.485998 35.796 28.235998 36.092 27.878998L36.092 27.878998L46.565 15.578998C 46.687 15.434998 46.798 15.280997 46.844997 15.024998L46.844997 15.024998L43.787 15.824998L31.086998 19.199997C 30.692999 19.305998 30.513998 19.189997 30.316998 18.863997L30.316998 18.863997L23.105 6.848C 22.98 6.64 22.845 6.448 22.58 6.263L22.58 6.263L21.998 9.47L19.984999 20.8L19.776999 22.023998C 19.742998 22.423998 19.543 22.557999 19.190998 22.668999L19.190998 22.668999L4.24 27.394C 4.02 27.463999 3.8079998 27.552 3.5729997 27.765999L3.5729997 27.765999L15.873 32.649998L15.5130005 32.933L7.86 37.88C 7.605178 38.078815 7.2565517 38.107113 6.973 37.952L6.973 37.952L-2.1729999 33.876C -3.541 33.276 -4.773 32.453 -5.731 31.281C -7.898 28.631 -7.4709997 25.614 -4.583 23.781C -3.6380002 23.178 -2.5650003 22.726 -1.4950001 22.377L-1.4950001 22.377L13.191 17.712002C 13.591 17.584002 13.791 17.400002 13.868 16.955002L13.868 16.955002L15.868 5.625002C 16.232 3.607002 16.426 1.525002 17.408 -0.3129983C 17.785002 -1.0129983 18.238 -1.7209983 18.775002 -2.3169982C 20.720001 -4.4769983 23.435001 -4.558998 25.491001 -2.5029984C 26.185001 -1.8089983 26.791 -0.98999834 27.298 -0.14999843L27.298 -0.14999843L34 10.986C 34.262 11.426 34.5 11.516 34.984 11.386L34.984 11.386L51.4 7.025C 52.528 6.727 53.670002 6.618 54.827003 6.8250003C 57.347004 7.2970004 58.450005 9.225 57.597004 11.651001C 57.209003 12.751001 56.539005 13.698001 55.797005 14.583001L55.797005 14.583001L44.34 28.05C 44.027 28.415998 44.02 28.679998 44.237 29.09L44.237 29.09L51.059 42.024002C 51.602997 43.056004 52.018997 44.127003 52.029 45.312004C 52.056 48.008003 50.085 50.214005 47.406 50.606003C 45.906 50.826004 44.511997 50.506004 43.106 50.072002L43.106 50.072002L32.806 46.939003C 32.488 46.844 32.366 46.719 32.31 46.376003L32.31 46.376003L31.068 39.136C 31.056002 39.07 31.076 38.998 31.086 38.850002L31.086 38.850002L42.906 42.11"
              stroke="none" fill="#E25A1C" fill-rule="nonzero"/>
        <path d="M15.863 32.65L18.043 33.600002L15.62 52.9L28.864 38.22L31.097 38.847L33.847 47.207L30.273 45.947002L21.025002 55.931004C 21.025002 55.931004 16.889002 60.213005 14.647001 59.491005C 12.405001 58.769005 10.513001 56.771004 10.303001 53.199005C 10.093001 49.627007 9.147001 39.429005 9.147001 39.429005L9.147001 39.429005L4.6270013 36.171005L15.863 32.65z"
              stroke="none" fill="#E25A1C" fill-rule="nonzero"/>
        <path d="M9.146 39.43C 9.146 39.43 7.15 61.503 11.038 62.238C 14.926001 62.973 10.618 62.133 10.618 62.133C 10.618 62.133 12.825 64.656 21.548 55.301L21.548 55.301L30.272 45.947L12.823999 56.246998C 13.2439995 55.720997 15.030999 37.852997 15.030999 37.852997L15.030999 37.852997L9.146 39.43z"
              stroke="none" fill="#E25A1C" fill-rule="nonzero"/>
    </g>
</svg>